<mxfile host="app.diagrams.net" modified="2023-08-11T07:38:25.152Z" agent="Mozilla/5.0 (Macintosh; Intel Mac OS X 10_15_7) AppleWebKit/605.1.15 (KHTML, like Gecko) Version/16.6 Safari/605.1.15" version="21.6.5" etag="cDjAeDWP_Pc1TB4SqOlm" type="github">
  <diagram name="Page-1" id="PyEdVXYL3CyuDwW1Tv2h">
    <mxGraphModel>
      <root>
        <mxCell id="0" />
        <mxCell id="1" parent="0" />
      </root>
    </mxGraphModel>
  </diagram>
</mxfile>
